<svg preserveAspectRatio="none" width="100%" height="100%" overflow="visible" style="display: block;" viewBox="0 0 298 147" fill="none" xmlns="http://www.w3.org/2000/svg">
<path id="Sticker" d="M149.711 0.00292969C231.674 0.191772 298 33.0253 298 73.501C297.999 114.093 231.29 147 149 147C66.7099 147 0.00052484 114.093 0 73.501C0 33.0266 66.3215 0.193913 148.281 0.00292969C148.52 0.00176155 148.76 4.1555e-08 148.999 0C149.237 0 149.474 0.00178067 149.711 0.00292969ZM149 1.89062C115.535 1.89063 87.9307 33.6683 87.9307 73.501C87.9309 113.022 115.106 144.613 148.217 145.104L148.678 145.107L148.999 145.109C182.464 145.109 210.069 113.333 210.069 73.501C210.069 33.6684 182.465 1.89075 149 1.89062ZM131.099 3.01465C110.255 5.66594 91.6607 12.8608 77.3848 23.0645C59.1279 36.1137 48.0568 53.9716 48.0566 73.499C48.0566 93.0266 59.1278 110.884 77.3848 123.934C91.6587 134.136 110.25 141.33 131.09 143.982C105.044 134.976 86.0422 106.829 86.042 73.501C86.042 40.1685 105.048 12.0179 131.099 3.01465ZM166.901 3.01465C192.952 12.018 211.958 40.1686 211.958 73.501C211.958 106.829 192.956 134.976 166.91 143.982C187.749 141.33 206.34 134.136 220.613 123.934C238.87 110.884 249.941 93.0266 249.941 73.499C249.941 53.9716 238.87 36.1137 220.613 23.0645C206.338 12.8611 187.744 5.66613 166.901 3.01465ZM117.214 3.57812C89.0953 6.61254 64.0176 13.5844 44.4766 23.2236C17.7035 36.4304 1.88867 54.3203 1.88867 73.501C1.88894 92.6815 17.7038 110.571 44.4766 123.777C64.0214 133.418 89.1053 140.39 117.23 143.424C75.9863 133.857 46.168 106.167 46.168 73.499C46.1682 40.8353 75.9784 13.148 117.214 3.57812ZM180.782 3.57812C222.019 13.1476 251.83 40.8348 251.83 73.499C251.83 106.168 222.011 133.858 180.766 143.424C208.893 140.391 233.979 133.419 253.524 123.777C280.297 110.571 296.111 92.6814 296.111 73.501C296.111 54.3204 280.297 36.4304 253.524 23.2236C233.982 13.5839 208.903 6.61232 180.782 3.57812ZM147.979 122.779C149.743 122.779 151.223 123.197 152.41 124.038L152.627 124.192C153.7 124.982 154.515 125.986 155.069 127.2C155.658 128.492 155.952 129.848 155.952 131.266C155.952 132.684 155.658 134.051 155.069 135.367V135.368C154.479 136.663 153.592 137.73 152.411 138.567H152.41C151.223 139.384 149.743 139.789 147.979 139.789C146.238 139.789 144.759 139.371 143.547 138.53L143.545 138.529C142.364 137.692 141.478 136.625 140.888 135.33V135.329C140.299 134.013 140.004 132.646 140.004 131.228C140.004 129.81 140.298 128.467 140.888 127.2C141.479 125.905 142.366 124.851 143.547 124.038C144.734 123.197 146.213 122.779 147.979 122.779ZM147.979 123.891C146.475 123.891 145.217 124.251 144.198 124.963C143.2 125.679 142.452 126.59 141.953 127.7C141.452 128.814 141.202 129.989 141.202 131.228C141.202 132.465 141.452 133.653 141.953 134.792L142.161 135.208C142.672 136.159 143.365 136.959 144.239 137.607H144.238C145.231 138.318 146.475 138.677 147.979 138.677C149.482 138.677 150.727 138.318 151.72 137.606V137.605C152.743 136.89 153.505 135.966 154.004 134.831C154.505 133.692 154.755 132.504 154.755 131.266C154.755 130.028 154.504 128.852 154.004 127.738V127.737C153.505 126.602 152.756 125.677 151.758 124.962C150.766 124.251 149.508 123.891 147.979 123.891ZM148.054 125.824C149.184 125.824 150.009 126.129 150.493 126.766C150.96 127.356 151.201 127.967 151.201 128.597C151.201 129.297 150.976 129.91 150.529 130.431C150.2 130.818 149.781 131.053 149.28 131.141C149.547 131.206 149.768 131.328 149.938 131.514C150.203 131.804 150.326 132.229 150.326 132.769V134.498C150.326 134.641 150.338 134.809 150.362 135.003C150.382 135.064 150.415 135.105 150.458 135.133C150.506 135.163 150.577 135.182 150.678 135.182C150.8 135.182 150.879 135.139 150.933 135.059C150.991 134.971 151.028 134.827 151.028 134.61V132.776H151.924V134.76C151.924 135.105 151.829 135.46 151.646 135.822L151.644 135.825C151.439 136.201 151.009 136.369 150.411 136.369C149.91 136.369 149.521 136.225 149.267 135.918L149.264 135.914C149.02 135.593 148.899 135.205 148.899 134.76V132.919C148.899 132.375 148.785 132.039 148.593 131.87L148.589 131.866C148.418 131.698 148.064 131.596 147.484 131.596H146.942V135.306L148.143 135.445L148.235 135.456V136.218H144.224V135.456L144.316 135.445L145.478 135.306V126.735L144.316 126.596L144.224 126.586V125.824H148.054ZM146.942 130.596H147.712C148.386 130.596 148.88 130.473 149.21 130.24C149.524 130.018 149.697 129.597 149.697 128.935V128.447C149.697 127.84 149.529 127.402 149.21 127.115C148.888 126.826 148.395 126.672 147.712 126.672H146.942V130.596ZM146.027 80.7266C147.355 80.7266 148.528 81.0365 149.547 81.6553C150.565 82.2741 151.357 83.1471 151.921 84.2754C152.503 85.4038 152.794 86.7512 152.794 88.3164C152.794 88.4983 152.785 88.6713 152.767 88.835V89.3809H142.973C143.082 90.3644 143.354 91.1288 143.79 91.6738C144.372 92.3836 145.164 92.7383 146.164 92.7383C146.837 92.7383 147.419 92.5838 147.91 92.2744C148.401 91.965 148.765 91.4823 149.001 90.8271L152.411 91.8105C152.029 93.0479 151.284 94.04 150.175 94.7861C149.084 95.5323 147.691 95.9053 146 95.9053C144.673 95.9052 143.491 95.587 142.454 94.9502C141.417 94.3132 140.607 93.4302 140.025 92.3018C139.462 91.1553 139.18 89.8268 139.18 88.3164C139.18 86.7694 139.471 85.4311 140.053 84.3027C140.635 83.1562 141.445 82.274 142.481 81.6553C143.518 81.0366 144.7 80.7266 146.027 80.7266ZM174.143 95.5508H170.514V93.2148C170.336 93.58 170.128 93.9132 169.887 94.2129C168.996 95.3412 167.813 95.9053 166.34 95.9053C165.23 95.9052 164.248 95.6045 163.394 95.0039C162.557 94.3852 161.903 93.5119 161.43 92.3838C160.975 91.2555 160.747 89.8996 160.747 88.3164C160.747 86.733 160.975 85.3764 161.43 84.248C161.903 83.1198 162.557 82.2548 163.394 81.6543C164.248 81.0356 165.231 80.7266 166.34 80.7266C167.813 80.7266 168.996 81.2906 169.887 82.4189C170.128 82.7135 170.336 83.0428 170.514 83.4053V76.0312H174.143V95.5508ZM129.42 75.6758C129.911 75.6758 130.348 75.7032 130.729 75.7578C131.111 75.8124 131.484 75.8948 131.848 76.0039V79.0615C131.575 78.9706 131.293 78.9065 131.002 78.8701C130.729 78.8156 130.42 78.7881 130.075 78.7881C129.421 78.7881 128.911 78.9518 128.547 79.2793C128.201 79.5887 128.028 80.044 128.028 80.6445V81.0811H137.059V95.5508H133.431V84.1113H128.028V95.5508H124.428V84.1113H122.545V81.0811H124.428V80.7812C124.428 79.0705 124.864 77.7962 125.737 76.959C126.628 76.1038 127.856 75.6758 129.42 75.6758ZM158.536 95.5508H154.907V76.0312H158.536V95.5508ZM167.622 83.9756C166.676 83.9756 165.913 84.3304 165.331 85.04C164.767 85.7498 164.485 86.8422 164.485 88.3164C164.485 89.7904 164.767 90.8821 165.331 91.5918C165.913 92.3014 166.676 92.6562 167.622 92.6562C168.568 92.6562 169.323 92.3016 169.887 91.5918C170.469 90.8821 170.76 89.7903 170.76 88.3164C170.76 86.8423 170.469 85.7498 169.887 85.04C169.323 84.3302 168.568 83.9756 167.622 83.9756ZM146.027 83.7842C145.1 83.7842 144.346 84.1392 143.764 84.8486C143.389 85.3081 143.139 85.9728 143.014 86.8418H148.989C148.868 85.9728 148.627 85.308 148.265 84.8486C147.737 84.139 146.991 83.7842 146.027 83.7842ZM135.231 75.2119C135.85 75.212 136.368 75.4122 136.786 75.8125C137.204 76.1947 137.414 76.7139 137.414 77.3691C137.414 78.0241 137.204 78.5518 136.786 78.9521C136.368 79.3343 135.85 79.5253 135.231 79.5254C134.631 79.5254 134.121 79.3343 133.703 78.9521C133.285 78.5518 133.076 78.0241 133.076 77.3691C133.076 76.714 133.285 76.1947 133.703 75.8125C134.121 75.4121 134.631 75.2119 135.231 75.2119ZM9.96094 70.752H11.9443V71.5312H9.94629V76.0879C9.94629 76.4603 10.0201 76.7347 10.167 76.9111C10.3138 77.0776 10.5092 77.1611 10.7539 77.1611C10.9204 77.1611 11.0777 77.1272 11.2246 77.0586C11.3812 76.99 11.5524 76.8919 11.7383 76.7646L12.0908 77.1465C11.6893 77.6658 11.1115 77.9258 10.3574 77.9258C9.84825 77.9258 9.44224 77.788 9.13867 77.5137C8.83511 77.2393 8.68265 76.8183 8.68262 76.25V75.7061C8.69241 75.5199 8.69727 75.2842 8.69727 75V71.5312H7.47852V70.8848L8.78613 70.7227L9.16797 68.7529H10.0488L9.96094 70.752ZM15.5762 70.5605C16.0853 70.5606 16.5458 70.6731 16.957 70.8984C17.3684 71.1238 17.6966 71.4477 17.9414 71.8691C18.1861 72.2806 18.3085 72.7853 18.3086 73.3828C18.3086 73.5494 18.2989 73.7065 18.2793 73.8535C18.2597 73.9906 18.2344 74.1081 18.2051 74.2061H13.5195C13.5391 75.1076 13.7644 75.7943 14.1953 76.2646C14.6262 76.7349 15.1944 76.9697 15.8994 76.9697C16.3694 76.9697 16.7609 76.8766 17.0742 76.6904C17.3876 76.4945 17.677 76.2452 17.9414 75.9414L18.2939 76.2207C18.0197 76.74 17.6468 77.1562 17.1768 77.4697C16.7067 77.7734 16.1385 77.9258 15.4727 77.9258C14.4838 77.9257 13.691 77.6066 13.0938 76.9697C12.4964 76.323 12.1973 75.4364 12.1973 74.3096C12.1973 73.5552 12.3489 72.8984 12.6523 72.3398C12.9657 71.7812 13.3775 71.3448 13.8867 71.0312C14.4057 70.7177 14.969 70.5605 15.5762 70.5605ZM22.4453 70.5605C22.8858 70.5606 23.2921 70.6441 23.6641 70.8105C24.0362 70.9771 24.345 71.208 24.5898 71.502C24.8346 71.7861 24.9862 72.1092 25.0449 72.4717C24.9764 72.8441 24.7511 73.0303 24.3691 73.0303C24.1245 73.0302 23.9388 72.9662 23.8115 72.8389C23.6941 72.7018 23.6105 72.5307 23.5615 72.3252L23.2969 71.3545C23.1599 71.3056 23.0227 71.2764 22.8857 71.2666C22.7585 71.247 22.6312 71.2373 22.5039 71.2373C21.8773 71.2373 21.3585 71.482 20.9473 71.9717C20.5457 72.4617 20.3447 73.1774 20.3447 74.1182C20.3447 75.0394 20.5652 75.7454 21.0059 76.2354C21.4465 76.7251 22.0099 76.9697 22.6953 76.9697C23.1163 76.9697 23.503 76.8766 23.8555 76.6904C24.208 76.4944 24.4974 76.2151 24.7227 75.8525L25.0898 76.0439C24.8842 76.6515 24.551 77.117 24.0908 77.4404C23.6306 77.7638 23.0526 77.9257 22.3574 77.9258C21.3488 77.9258 20.5456 77.5969 19.9482 76.9404C19.3509 76.2839 19.0518 75.3924 19.0518 74.2656C19.0518 73.4914 19.2081 72.8291 19.5215 72.2803C19.8446 71.7218 20.2662 71.2959 20.7852 71.002C21.3042 70.708 21.8577 70.5605 22.4453 70.5605ZM271.463 66.9883L271.404 69.0762V77.0283L272.595 77.2051V77.7344L270.317 77.8809L270.215 76.8672C269.96 77.2004 269.666 77.4603 269.333 77.6465C269.01 77.8325 268.618 77.9257 268.158 77.9258C267.561 77.9258 267.036 77.7735 266.586 77.4697C266.135 77.1659 265.783 76.744 265.528 76.2051C265.284 75.6565 265.161 75.0247 265.161 74.3096C265.161 73.5551 265.298 72.8984 265.572 72.3398C265.846 71.7814 266.219 71.3448 266.688 71.0312C267.159 70.7177 267.693 70.5606 268.29 70.5605C268.633 70.5605 268.961 70.6294 269.274 70.7666C269.598 70.9038 269.911 71.154 270.215 71.5166V68.1943L268.966 68.0469V67.5322L271.258 66.8711L271.463 66.9883ZM275.819 70.5605C276.593 70.5605 277.166 70.7565 277.538 71.1484C277.91 71.5306 278.097 72.1873 278.097 73.1182V76.25C278.097 76.5634 278.145 76.7887 278.243 76.9258C278.341 77.0531 278.468 77.1171 278.625 77.1172C278.752 77.1172 278.86 77.0871 278.948 77.0283C279.036 76.9695 279.12 76.8909 279.198 76.793L279.492 77.1172C279.316 77.4013 279.12 77.6021 278.904 77.7197C278.699 77.8275 278.468 77.8809 278.214 77.8809C277.861 77.8809 277.567 77.7781 277.332 77.5723C277.097 77.3665 276.95 77.0919 276.892 76.749C276.49 77.1409 276.138 77.4349 275.834 77.6309C275.53 77.8268 275.163 77.9258 274.732 77.9258C274.194 77.9258 273.729 77.7734 273.337 77.4697C272.955 77.1561 272.764 76.6955 272.764 76.0879C272.764 75.8037 272.828 75.5389 272.955 75.2939C273.092 75.049 273.337 74.8093 273.689 74.5742C274.042 74.339 274.546 74.1033 275.202 73.8682C275.427 73.7898 275.687 73.7063 275.98 73.6182C276.274 73.53 276.569 73.4514 276.862 73.3828V73.0156C276.862 72.3003 276.754 71.8251 276.539 71.5898C276.324 71.3546 275.971 71.2373 275.481 71.2373C275.374 71.2373 275.251 71.2422 275.114 71.252C274.987 71.2617 274.845 71.286 274.688 71.3252L274.409 72.2803C274.272 72.7505 274.017 72.9862 273.646 72.9863C273.234 72.9863 273.004 72.7853 272.955 72.3838C273.092 71.8253 273.415 71.3839 273.924 71.0605C274.443 70.7273 275.075 70.5605 275.819 70.5605ZM281.604 70.752H283.588V71.5312H281.59V76.0879C281.59 76.4603 281.664 76.7347 281.811 76.9111C281.957 77.0775 282.153 77.1611 282.397 77.1611C282.564 77.1611 282.721 77.1262 282.868 77.0576C283.025 76.989 283.196 76.891 283.382 76.7637L283.734 77.1465C283.333 77.6657 282.755 77.9258 282.001 77.9258C281.492 77.9258 281.086 77.7879 280.782 77.5137C280.479 77.2394 280.326 76.8182 280.326 76.25V75.7061C280.336 75.5199 280.341 75.2842 280.341 75V71.5312H279.122V70.8838L280.43 70.7227L280.812 68.7529H281.692L281.604 70.752ZM286.897 70.5605C287.671 70.5606 288.244 70.7565 288.616 71.1484C288.988 71.5306 289.175 72.1873 289.175 73.1182V76.25C289.175 76.5634 289.223 76.7887 289.321 76.9258C289.419 77.0531 289.546 77.1172 289.703 77.1172C289.83 77.1172 289.938 77.0871 290.026 77.0283C290.114 76.9695 290.198 76.8909 290.276 76.793L290.57 77.1172C290.394 77.4013 290.198 77.6021 289.982 77.7197C289.777 77.8275 289.547 77.8808 289.292 77.8809C288.939 77.8809 288.645 77.7781 288.41 77.5723C288.175 77.3665 288.028 77.0919 287.97 76.749C287.568 77.1409 287.216 77.4349 286.912 77.6309C286.609 77.8268 286.241 77.9257 285.811 77.9258C285.272 77.9258 284.807 77.7734 284.415 77.4697C284.033 77.1561 283.842 76.6955 283.842 76.0879C283.842 75.8037 283.906 75.5389 284.033 75.2939C284.17 75.049 284.415 74.8093 284.768 74.5742C285.12 74.339 285.624 74.1034 286.28 73.8682C286.505 73.7898 286.765 73.7063 287.059 73.6182C287.352 73.53 287.647 73.4514 287.94 73.3828V73.0156C287.94 72.3003 287.833 71.8251 287.617 71.5898C287.402 71.3547 287.049 71.2373 286.56 71.2373C286.452 71.2373 286.329 71.2422 286.192 71.252C286.065 71.2617 285.923 71.286 285.767 71.3252L285.487 72.2803C285.35 72.7505 285.096 72.9861 284.724 72.9863C284.312 72.9863 284.082 72.7853 284.033 72.3838C284.17 71.8253 284.493 71.3839 285.002 71.0605C285.521 70.7273 286.153 70.5605 286.897 70.5605ZM27.6836 66.9893L27.625 69.0762V71.9131C27.9872 71.5115 28.4081 71.1883 28.8877 70.9434C29.3676 70.6886 29.8434 70.5605 30.3135 70.5605C30.9499 70.5606 31.4201 70.7769 31.7236 71.208C32.0368 71.6294 32.1933 72.3202 32.1934 73.2803V75.7939C32.2031 76.225 32.2129 76.6267 32.2227 76.999L33.251 77.2051V77.7344H29.8428V77.2051L30.915 77.0137C30.9248 76.6414 30.9297 76.2396 30.9297 75.8086C30.9395 75.3677 30.9443 74.9806 30.9443 74.6475V73.3984C30.9443 72.7227 30.8519 72.2569 30.666 72.002C30.4799 71.7472 30.1711 71.6192 29.7402 71.6191C29.3779 71.6191 29.0351 71.6928 28.7119 71.8398C28.3887 71.9868 28.0411 72.2322 27.6689 72.5752V75.7939C27.6787 76.225 27.6885 76.6267 27.6982 76.999L28.7119 77.2051V77.7344H25.3037V77.2051L26.4053 76.999C26.4151 76.6267 26.4199 76.225 26.4199 75.7939C26.4297 75.353 26.4346 74.9708 26.4346 74.6475V68.1943L25.2305 68.0469V67.5322L27.4775 66.8711L27.6836 66.9893ZM268.511 71.3984C268.148 71.3984 267.81 71.5014 267.497 71.707C267.193 71.903 266.949 72.2172 266.763 72.6484C266.577 73.0698 266.483 73.6139 266.483 74.2803C266.483 75.2405 266.675 75.9506 267.057 76.4111C267.448 76.8618 267.938 77.0879 268.525 77.0879C268.848 77.0879 269.132 77.0238 269.377 76.8965C269.632 76.7593 269.897 76.5391 270.171 76.2354V72.1631C269.838 71.8691 269.539 71.6684 269.274 71.5605C269.01 71.4528 268.756 71.3985 268.511 71.3984ZM276.862 73.9268C276.608 73.9953 276.358 74.0739 276.113 74.1621C275.868 74.2405 275.667 74.3094 275.511 74.3682C275.09 74.5347 274.776 74.7064 274.57 74.8828C274.365 75.059 274.228 75.2301 274.159 75.3965C274.1 75.563 274.071 75.7202 274.071 75.8672C274.071 76.2592 274.184 76.5385 274.409 76.7051C274.634 76.8716 274.913 76.955 275.246 76.9551C275.393 76.9551 275.531 76.9357 275.658 76.8965C275.795 76.8573 275.957 76.7835 276.143 76.6758C276.329 76.5582 276.569 76.3914 276.862 76.1758V73.9268ZM287.94 73.9268C287.686 73.9953 287.436 74.0739 287.191 74.1621C286.947 74.2405 286.746 74.3094 286.589 74.3682C286.168 74.5348 285.854 74.7064 285.648 74.8828C285.443 75.059 285.306 75.2301 285.237 75.3965C285.179 75.563 285.149 75.7202 285.149 75.8672C285.149 76.2592 285.262 76.5385 285.487 76.7051C285.712 76.8716 285.991 76.955 286.324 76.9551C286.471 76.9551 286.608 76.9356 286.735 76.8965C286.872 76.8573 287.035 76.7836 287.221 76.6758C287.407 76.5582 287.647 76.3913 287.94 76.1758V73.9268ZM15.4873 71.2373C15.2132 71.2374 14.9342 71.316 14.6504 71.4727C14.3763 71.6294 14.1362 71.8789 13.9307 72.2217C13.7348 72.5647 13.6076 73.0205 13.5488 73.5889H16.2227C16.575 73.5888 16.8054 73.5151 16.9131 73.3682C17.0304 73.2212 17.0889 73.0396 17.0889 72.8242C17.0888 72.5404 17.0158 72.2809 16.8691 72.0459C16.732 71.8009 16.5407 71.604 16.2959 71.457C16.0609 71.3101 15.7909 71.2373 15.4873 71.2373ZM132.699 54.4766C134.027 54.4766 135.2 54.7865 136.219 55.4053C137.237 56.024 138.029 56.8971 138.593 58.0254C139.175 59.1538 139.466 60.5012 139.466 62.0664C139.466 62.2483 139.457 62.4212 139.438 62.585V63.1309H129.645C129.754 64.1144 130.026 64.8788 130.462 65.4238C131.044 66.1336 131.836 66.4883 132.836 66.4883C133.509 66.4883 134.091 66.3338 134.582 66.0244C135.073 65.7151 135.436 65.233 135.673 64.5781L139.083 65.5605C138.701 66.798 137.956 67.79 136.847 68.5361C135.755 69.2823 134.363 69.6553 132.672 69.6553C131.344 69.6552 130.163 69.337 129.126 68.7002C128.089 68.0632 127.279 67.1802 126.697 66.0518C126.134 64.9053 125.852 63.5768 125.852 62.0664C125.852 60.5194 126.143 59.1811 126.725 58.0527C127.307 56.9062 128.117 56.024 129.153 55.4053C130.19 54.7866 131.372 54.4766 132.699 54.4766ZM145.754 54.832H149.71V57.8623H145.754V64.0322C145.754 64.7964 145.945 65.3698 146.327 65.752C146.727 66.1341 147.282 66.3252 147.991 66.3252C148.337 66.3252 148.655 66.2978 148.946 66.2432C149.237 66.1704 149.538 66.0972 149.847 66.0244V69.3008C149.428 69.41 149.001 69.4923 148.564 69.5469C148.128 69.6197 147.627 69.6553 147.063 69.6553C145.536 69.6552 144.336 69.2274 143.463 68.3721C142.59 67.4985 142.153 66.2068 142.153 64.4961V57.8623H140.271V54.832H142.153V51.8291L145.754 51.1191V54.832ZM173.334 54.4766C174.662 54.4766 175.835 54.7865 176.854 55.4053C177.872 56.0241 178.664 56.8971 179.228 58.0254C179.81 59.1538 180.101 60.5012 180.101 62.0664C180.101 62.2483 180.091 62.4213 180.073 62.585V63.1309H170.28C170.39 64.1145 170.662 64.8788 171.098 65.4238C171.68 66.1335 172.47 66.4883 173.471 66.4883C174.144 66.4883 174.726 66.3338 175.217 66.0244C175.708 65.715 176.071 65.2323 176.308 64.5771L179.719 65.5605C179.337 66.7981 178.591 67.7899 177.481 68.5361C176.39 69.2823 174.998 69.6553 173.307 69.6553C171.979 69.6552 170.797 69.337 169.761 68.7002C168.724 68.0632 167.914 67.1802 167.332 66.0518C166.768 64.9053 166.486 63.5768 166.486 62.0664C166.486 60.5194 166.777 59.1811 167.359 58.0527C167.941 56.9062 168.751 56.0241 169.788 55.4053C170.825 54.7866 172.006 54.4766 173.334 54.4766ZM125.408 69.3008H121.398L119.948 64.6875H112.748L111.331 69.3008H107.402L113.596 50.4639H119.216L125.408 69.3008ZM155.22 57.1152C155.636 56.3144 156.173 55.6897 156.829 55.2412C157.593 54.7316 158.475 54.4766 159.476 54.4766C160.421 54.4766 161.258 54.7134 161.985 55.1865C162.731 55.6415 163.313 56.297 163.731 57.1523C164.15 57.9895 164.359 59.0088 164.359 60.21V69.3008H160.73V60.9473C160.73 59.8736 160.467 59.0636 159.939 58.5176C159.412 57.9717 158.757 57.6983 157.976 57.6982C157.194 57.6982 156.538 57.9716 156.011 58.5176C155.549 58.9953 155.29 59.675 155.232 60.5566L155.22 60.9473V69.3008H151.591V49.7812H155.22V57.1152ZM190.346 58.5986H188.764C187.854 58.5986 187.136 58.8355 186.608 59.3086C186.099 59.7635 185.845 60.5645 185.845 61.7109V69.3008H182.216V54.832H185.845V57.915C186.208 56.8726 186.734 56.0539 187.427 55.46C188.191 54.8048 189.164 54.4766 190.346 54.4766V58.5986ZM113.779 61.3291H118.894L116.306 53.0977L113.779 61.3291ZM132.699 57.5342C131.772 57.5342 131.017 57.8892 130.436 58.5986C130.061 59.058 129.811 59.7228 129.686 60.5918H135.661C135.539 59.7229 135.299 59.058 134.937 58.5986C134.409 57.889 133.663 57.5342 132.699 57.5342ZM173.334 57.5342C172.407 57.5343 171.652 57.8892 171.07 58.5986C170.696 59.0581 170.446 59.7227 170.32 60.5918H176.296C176.174 59.7228 175.934 59.058 175.571 58.5986C175.044 57.889 174.298 57.5342 173.334 57.5342ZM135.778 11.7617C136.288 11.7617 136.748 11.8742 137.159 12.0996C137.57 12.325 137.899 12.648 138.144 13.0693C138.388 13.4809 138.511 13.9862 138.511 14.584C138.511 14.7503 138.501 14.9069 138.481 15.0537C138.462 15.1909 138.437 15.3092 138.407 15.4072H133.722C133.741 16.3086 133.967 16.9945 134.397 17.4648C134.828 17.9352 135.396 18.1699 136.102 18.1699C136.572 18.1699 136.963 18.0768 137.276 17.8906C137.59 17.6946 137.879 17.4454 138.144 17.1416L138.496 17.4209C138.222 17.9403 137.849 18.3563 137.379 18.6699C136.909 18.9736 136.341 19.1259 135.676 19.126C134.687 19.126 133.893 18.8069 133.296 18.1699C132.699 17.5231 132.399 16.6367 132.399 15.5098C132.399 14.7553 132.551 14.0986 132.854 13.54C133.168 12.9814 133.58 12.545 134.089 12.2314C134.608 11.9179 135.171 11.7617 135.778 11.7617ZM142.215 11.7617C142.988 11.7617 143.561 11.9576 143.934 12.3496C144.306 12.7318 144.491 13.3886 144.491 14.3193V17.4502C144.491 17.7636 144.541 17.9888 144.639 18.126C144.737 18.2534 144.864 18.3174 145.021 18.3174C145.148 18.3174 145.256 18.2882 145.344 18.2295C145.432 18.1707 145.515 18.0921 145.594 17.9941L145.888 18.3174C145.711 18.6015 145.515 18.8023 145.3 18.9199C145.094 19.0277 144.864 19.082 144.609 19.082C144.257 19.082 143.963 18.9792 143.728 18.7734C143.493 18.5677 143.346 18.2931 143.287 17.9502C142.886 18.3421 142.533 18.6361 142.229 18.832C141.926 19.028 141.559 19.1259 141.128 19.126C140.589 19.126 140.124 18.9737 139.732 18.6699C139.35 18.3563 139.159 17.8957 139.159 17.2881C139.159 17.004 139.223 16.739 139.351 16.4941C139.488 16.2493 139.733 16.0094 140.085 15.7744C140.438 15.5393 140.942 15.3035 141.598 15.0684C141.823 14.99 142.082 14.9065 142.376 14.8184C142.67 14.7302 142.964 14.6526 143.258 14.584V14.2158C143.258 13.5006 143.15 13.0252 142.935 12.79C142.719 12.5549 142.367 12.4375 141.877 12.4375C141.769 12.4375 141.647 12.4424 141.51 12.4521C141.383 12.4619 141.241 12.4863 141.084 12.5254L140.805 13.4814C140.668 13.9515 140.413 14.1863 140.041 14.1865C139.63 14.1865 139.4 13.9858 139.351 13.584C139.488 13.0255 139.81 12.5841 140.319 12.2607C140.838 11.9275 141.471 11.7617 142.215 11.7617ZM158.219 8.18945L158.16 10.2764V13.1133C158.522 12.7116 158.944 12.3885 159.424 12.1436C159.904 11.8889 160.379 11.7617 160.849 11.7617C161.485 11.7618 161.955 11.9771 162.259 12.4082C162.572 12.8296 162.728 13.5203 162.729 14.4805V16.9941C162.738 17.4253 162.748 17.8278 162.758 18.2002L163.786 18.4053V18.9346H160.378V18.4053L161.451 18.2148C161.461 17.8424 161.466 17.44 161.466 17.0088C161.476 16.568 161.48 16.1807 161.48 15.8477V14.5986C161.48 13.9227 161.387 13.457 161.201 13.2021C161.015 12.9474 160.706 12.8193 160.275 12.8193C159.913 12.8194 159.57 12.8931 159.247 13.04C158.924 13.187 158.576 13.4324 158.204 13.7754V16.9941C158.214 17.4253 158.224 17.8278 158.233 18.2002L159.247 18.4053V18.9346H155.839V18.4756C155.444 18.9076 154.906 19.126 154.218 19.126C153.709 19.1259 153.303 18.989 152.999 18.7148C152.695 18.4404 152.543 18.0186 152.543 17.4502V16.9062C152.553 16.7202 152.559 16.4851 152.559 16.2012V12.7314H151.379C151.279 13.1625 151.005 13.3779 150.557 13.3779C150.39 13.3779 150.234 13.3488 150.087 13.29C149.94 13.2214 149.797 13.1283 149.66 13.0107L149.484 12.8496C149.191 13.0651 148.946 13.3292 148.75 13.6426C148.554 13.9561 148.392 14.3238 148.265 14.7451V16.9795C148.274 17.4107 148.284 17.8131 148.294 18.1855L149.499 18.4053V18.9346H145.929V18.4053L146.987 18.2148C146.997 17.8424 147.002 17.44 147.002 17.0088C147.012 16.568 147.017 16.1807 147.017 15.8477V15.1426C147.017 14.7408 147.012 14.4072 147.002 14.1426C147.002 13.878 146.992 13.5986 146.973 13.3047L145.812 13.1729V12.6582L147.868 11.7617L148.089 11.9082L148.25 13.6426C148.495 13.0547 148.809 12.5939 149.19 12.2607C149.582 11.9278 149.974 11.7618 150.365 11.7617C150.59 11.7617 150.801 11.8103 150.997 11.9082C151.14 11.9796 151.253 12.0699 151.339 12.1777V12.085L152.646 11.9229L153.028 9.95312H153.909L153.821 11.9521H155.805V12.7314H153.807V17.2881C153.807 17.6604 153.881 17.9349 154.027 18.1113C154.174 18.2779 154.37 18.3613 154.615 18.3613C154.782 18.3613 154.938 18.3273 155.085 18.2588C155.242 18.1902 155.413 18.0921 155.599 17.9648L155.951 18.3467C155.939 18.3624 155.925 18.3763 155.912 18.3916L156.94 18.2002C156.95 17.8278 156.955 17.4253 156.955 16.9941C156.965 16.5533 156.97 16.171 156.97 15.8477V9.39453L155.766 9.24805V8.7334L158.014 8.07129L158.219 8.18945ZM143.258 15.1279C143.003 15.1965 142.754 15.2742 142.509 15.3623C142.264 15.4407 142.063 15.5096 141.906 15.5684C141.485 15.735 141.171 15.9066 140.966 16.083C140.76 16.2594 140.623 16.4311 140.555 16.5977C140.496 16.7642 140.467 16.9214 140.467 17.0684C140.467 17.4601 140.58 17.7397 140.805 17.9062C141.03 18.0726 141.309 18.1552 141.642 18.1553C141.788 18.1553 141.926 18.1358 142.053 18.0967C142.19 18.0575 142.352 17.9838 142.538 17.876C142.724 17.7584 142.964 17.5924 143.258 17.377V15.1279ZM135.69 12.4375C135.416 12.4375 135.137 12.5161 134.853 12.6729C134.578 12.8296 134.338 13.0791 134.133 13.4219C133.937 13.7648 133.81 14.2208 133.751 14.7891H136.425C136.777 14.789 137.007 14.7162 137.115 14.5693C137.233 14.4224 137.291 14.2408 137.291 14.0254C137.291 13.7413 137.218 13.4812 137.071 13.2461C136.934 13.0012 136.743 12.8052 136.498 12.6582C136.263 12.5113 135.994 12.4376 135.69 12.4375Z" fill="var(--fill-0, #2683EB)"/>
</svg>
