<svg preserveAspectRatio="none" width="100%" height="100%" overflow="visible" style="display: block;" viewBox="0 0 284 140.001" fill="none" xmlns="http://www.w3.org/2000/svg">
<path id="Sticker" d="M142.681 0.00292969C220.792 0.183643 284 31.453 284 70.001C284 108.661 220.424 140.001 142 140.001C63.5756 140.001 0 108.661 0 70.001C0 31.4531 63.2075 0.183902 141.318 0.00292969C141.545 0.00182504 141.773 0 142 0C142.227 0 142.454 0.00182821 142.681 0.00292969ZM142 1.80078C110.107 1.80078 83.7998 32.0648 83.7998 70.001C83.7998 107.815 109.938 138.004 141.691 138.198C141.794 138.198 141.897 138.2 142 138.2C142.103 138.2 142.205 138.198 142.308 138.198C174.062 138.004 200.2 107.815 200.2 70.001C200.2 32.0648 173.893 1.80078 142 1.80078ZM124.942 2.87012C105.077 5.395 87.3557 12.2485 73.75 21.9668C56.3507 34.3949 45.7998 51.4022 45.7998 70C45.7998 88.5978 56.3507 105.605 73.75 118.033C87.3537 127.75 105.072 134.602 124.934 137.128C100.11 128.551 82 101.744 82 70.001C82 38.2544 100.114 11.4437 124.942 2.87012ZM159.057 2.87012C183.885 11.4434 202 38.254 202 70.001C202 101.744 183.889 128.551 159.065 137.128C178.927 134.602 196.646 127.75 210.25 118.033C227.649 105.605 238.2 88.5978 238.2 70C238.2 51.4022 227.649 34.3949 210.25 21.9668C196.644 12.2484 178.922 5.3949 159.057 2.87012ZM111.705 3.40723C84.9082 6.29729 61.0093 12.938 42.3867 22.1182C16.8715 34.6961 1.7998 51.7336 1.7998 70.001C1.7998 88.2684 16.8715 105.306 42.3867 117.884C61.0131 127.066 84.9181 133.706 111.722 136.595C72.4164 127.483 44 101.112 44 70C44 38.8921 72.4081 12.5221 111.705 3.40723ZM172.294 3.40723C211.591 12.5219 240 38.8918 240 70C240 101.112 211.583 127.484 172.277 136.595C199.081 133.706 222.987 127.066 241.613 117.884C267.128 105.306 282.2 88.2684 282.2 70.001C282.2 51.7336 267.128 34.6961 241.613 22.1182C222.991 12.9379 199.091 6.29724 172.294 3.40723ZM141.027 116.934C142.709 116.934 144.12 117.33 145.251 118.132L145.458 118.279C146.481 119.032 147.257 119.987 147.785 121.144C148.347 122.374 148.627 123.665 148.627 125.016C148.627 126.366 148.346 127.669 147.785 128.922V128.923C147.222 130.156 146.377 131.172 145.252 131.97H145.251C144.12 132.747 142.709 133.133 141.027 133.133C139.368 133.133 137.959 132.736 136.804 131.935L136.803 131.934C135.678 131.136 134.833 130.12 134.27 128.887V128.886C133.708 127.632 133.428 126.33 133.428 124.979C133.428 123.629 133.708 122.35 134.27 121.144C134.833 119.91 135.678 118.906 136.804 118.132C137.935 117.33 139.345 116.934 141.027 116.934ZM141.027 117.992C139.594 117.992 138.395 118.335 137.425 119.013C136.474 119.694 135.761 120.563 135.285 121.62C134.808 122.681 134.569 123.8 134.569 124.979C134.569 126.158 134.808 127.289 135.285 128.374L135.483 128.771C135.971 129.676 136.63 130.438 137.464 131.056H137.463C138.409 131.733 139.595 132.074 141.027 132.074C142.46 132.074 143.647 131.732 144.593 131.055V131.054C145.568 130.372 146.294 129.492 146.77 128.411C147.247 127.326 147.485 126.195 147.485 125.016C147.485 123.837 147.247 122.717 146.77 121.656V121.655C146.294 120.574 145.58 119.693 144.629 119.012C143.683 118.335 142.485 117.992 141.027 117.992ZM141.1 119.833C142.177 119.833 142.962 120.123 143.424 120.729C143.869 121.292 144.099 121.874 144.099 122.474C144.099 123.141 143.885 123.725 143.459 124.221C143.145 124.589 142.746 124.813 142.269 124.896C142.523 124.958 142.733 125.076 142.895 125.252C143.147 125.528 143.265 125.933 143.265 126.447V128.094C143.265 128.23 143.277 128.39 143.3 128.575C143.318 128.633 143.349 128.672 143.391 128.698C143.436 128.727 143.503 128.745 143.6 128.745C143.716 128.745 143.791 128.704 143.843 128.628C143.899 128.545 143.935 128.408 143.935 128.201V126.454H144.787V128.344C144.787 128.672 144.697 129.01 144.522 129.355L144.521 129.358C144.325 129.717 143.915 129.876 143.346 129.876C142.868 129.876 142.497 129.739 142.255 129.446L142.252 129.442C142.02 129.136 141.905 128.768 141.905 128.344V126.59C141.905 126.072 141.797 125.753 141.613 125.592L141.609 125.588C141.447 125.427 141.109 125.33 140.557 125.33H140.04V128.863L141.184 128.996L141.272 129.007V129.732H137.449V129.007L137.537 128.996L138.645 128.863V120.701L137.537 120.568L137.449 120.559V119.833H141.1ZM140.04 124.378H140.773C141.416 124.378 141.887 124.261 142.201 124.039C142.5 123.828 142.666 123.426 142.666 122.796V122.331C142.666 121.753 142.506 121.336 142.201 121.062C141.895 120.787 141.424 120.641 140.773 120.641H140.04V124.378ZM139.165 76.8828C140.43 76.8829 141.548 77.1774 142.519 77.7666C143.489 78.3559 144.243 79.1881 144.78 80.2627C145.335 81.3373 145.612 82.6198 145.612 84.1104C145.612 84.2836 145.604 84.4486 145.587 84.6045V85.125H136.254C136.358 86.0616 136.617 86.7896 137.032 87.3086C137.587 87.9846 138.342 88.3223 139.295 88.3223C139.936 88.3222 140.491 88.1755 140.959 87.8809C141.427 87.5862 141.774 87.1268 141.999 86.5029L145.249 87.4385C144.885 88.6171 144.174 89.5618 143.116 90.2725C142.076 90.9831 140.751 91.3389 139.139 91.3389C137.873 91.3389 136.747 91.0353 135.759 90.4287C134.771 89.822 133.999 88.9809 133.444 87.9062C132.907 86.8144 132.639 85.5488 132.639 84.1104C132.639 82.6373 132.916 81.3636 133.471 80.2891C134.025 79.1972 134.796 78.3559 135.784 77.7666C136.772 77.1773 137.9 76.8828 139.165 76.8828ZM165.959 91.001H162.501V88.7754C162.332 89.1234 162.134 89.441 161.903 89.7266C161.054 90.8011 159.927 91.3388 158.523 91.3389C157.466 91.3389 156.53 91.0525 155.715 90.4805C154.918 89.8911 154.293 89.0589 153.843 87.9844C153.41 86.9098 153.193 85.6182 153.193 84.1104C153.193 82.6025 153.409 81.3109 153.843 80.2363C154.293 79.1618 154.918 78.3386 155.715 77.7666C156.53 77.1773 157.466 76.8828 158.523 76.8828C159.927 76.8829 161.054 77.4205 161.903 78.4951C162.134 78.776 162.332 79.0898 162.501 79.4355V72.4111H165.959V91.001ZM123.339 72.0723C123.807 72.0723 124.223 72.0984 124.587 72.1504C124.951 72.2024 125.307 72.2808 125.653 72.3848V75.2969C125.393 75.2102 125.124 75.1489 124.847 75.1143C124.587 75.0623 124.292 75.0371 123.963 75.0371C123.339 75.0371 122.853 75.1929 122.507 75.5049C122.178 75.7995 122.013 76.2328 122.013 76.8047V77.2207H130.619V91.001H127.161V80.1064H122.013V91.001H118.581V80.1064H116.787V77.2207H118.581V76.9346C118.581 75.3053 118.997 74.0922 119.829 73.2949C120.678 72.4803 121.848 72.0723 123.339 72.0723ZM151.087 91.001H147.629V72.4111H151.087V91.001ZM159.745 79.9766C158.844 79.9766 158.116 80.3152 157.562 80.9912C157.024 81.6672 156.755 82.7066 156.755 84.1104C156.755 85.5144 157.024 86.5545 157.562 87.2305C158.116 87.9064 158.844 88.2451 159.745 88.2451C160.646 88.2451 161.366 87.9065 161.903 87.2305C162.458 86.5545 162.735 85.5142 162.735 84.1104C162.735 82.7068 162.458 81.6672 161.903 80.9912C161.366 80.3152 160.646 79.9766 159.745 79.9766ZM139.165 79.7949C138.281 79.7949 137.561 80.1327 137.007 80.8086C136.65 81.2462 136.412 81.8792 136.292 82.707H141.985C141.869 81.8794 141.642 81.2461 141.297 80.8086C140.794 80.1327 140.083 79.795 139.165 79.7949ZM128.877 71.6309C129.466 71.6309 129.961 71.8218 130.359 72.2031C130.758 72.5671 130.957 73.0608 130.957 73.6846C130.957 74.3084 130.758 74.8111 130.359 75.1924C129.961 75.5564 129.466 75.7383 128.877 75.7383C128.305 75.7383 127.82 75.5564 127.421 75.1924C127.022 74.8111 126.823 74.3085 126.823 73.6846C126.823 73.0608 127.022 72.5671 127.421 72.2031C127.82 71.8218 128.305 71.6309 128.877 71.6309ZM9.49316 67.3838H11.3828V68.126H9.47949V72.4658C9.47951 72.8204 9.54947 73.082 9.68945 73.25C9.82939 73.4084 10.0159 73.4873 10.249 73.4873C10.4077 73.4873 10.5573 73.455 10.6973 73.3896C10.8466 73.3243 11.0102 73.2307 11.1875 73.1094L11.5234 73.4736C11.1408 73.9683 10.5898 74.2158 9.87109 74.2158C9.3858 74.2158 8.9983 74.0846 8.70898 73.8232C8.41994 73.562 8.27547 73.161 8.27539 72.6201V72.1016C8.28472 71.9243 8.28906 71.7003 8.28906 71.4297V68.126H7.12695V67.5098L8.37305 67.3555L8.7373 65.4795H9.57715L9.49316 67.3838ZM14.8418 67.2012C15.3269 67.2012 15.7654 67.3089 16.1572 67.5234C16.5492 67.7381 16.8624 68.0459 17.0957 68.4473C17.329 68.8392 17.4453 69.3204 17.4453 69.8896C17.4453 70.0481 17.4356 70.1971 17.417 70.3369C17.3983 70.4676 17.3757 70.5805 17.3477 70.6738H12.8809C12.8996 71.5323 13.1148 72.1859 13.5254 72.6338C13.936 73.0816 14.4776 73.3057 15.1494 73.3057C15.5974 73.3057 15.9709 73.2164 16.2695 73.0391C16.5681 72.8524 16.8438 72.6144 17.0957 72.3252L17.4316 72.5918C17.1703 73.0864 16.8151 73.4826 16.3672 73.7812C15.9192 74.0706 15.3778 74.2158 14.7432 74.2158C13.8007 74.2158 13.0449 73.9121 12.4756 73.3057C11.9063 72.6897 11.6211 71.8448 11.6211 70.7715C11.6211 70.0528 11.7663 69.4275 12.0557 68.8955C12.3543 68.3635 12.7461 67.9481 13.2314 67.6494C13.7261 67.3508 14.2632 67.2012 14.8418 67.2012ZM21.3906 67.2012C21.8106 67.2012 22.1981 67.2808 22.5527 67.4395C22.9073 67.5981 23.2013 67.8177 23.4346 68.0977C23.6678 68.3683 23.8122 68.6763 23.8682 69.0215C23.8028 69.3761 23.5885 69.5537 23.2246 69.5537C22.9914 69.5537 22.8137 69.4933 22.6924 69.3721C22.5804 69.2414 22.5008 69.0778 22.4541 68.8818L22.2021 67.958C22.0716 67.9114 21.9411 67.8834 21.8105 67.874C21.6892 67.8554 21.5676 67.8457 21.4463 67.8457C20.849 67.8458 20.3548 68.0793 19.9629 68.5459C19.5802 69.0126 19.3887 69.6938 19.3887 70.5898C19.3887 71.467 19.5986 72.1388 20.0186 72.6055C20.4386 73.0721 20.9756 73.3057 21.6289 73.3057C22.03 73.3056 22.3986 73.2172 22.7344 73.04C23.0704 72.8534 23.3459 72.5865 23.5605 72.2412L23.9102 72.4238C23.7141 73.0023 23.3966 73.446 22.958 73.7539C22.5195 74.0617 21.969 74.2158 21.3066 74.2158C20.3453 74.2158 19.5801 73.9027 19.0107 73.2773C18.4414 72.652 18.1562 71.8028 18.1562 70.7295C18.1563 69.9923 18.3059 69.3625 18.6045 68.8398C18.9125 68.3079 19.314 67.9021 19.8086 67.6221C20.3033 67.3421 20.8306 67.2012 21.3906 67.2012ZM262.861 67.2012C263.599 67.2012 264.144 67.3884 264.499 67.7617C264.854 68.1257 265.031 68.7512 265.031 69.6377V72.6191C265.031 72.9178 265.078 73.133 265.171 73.2637C265.264 73.3849 265.386 73.4453 265.535 73.4453C265.656 73.4453 265.759 73.4172 265.843 73.3613C265.927 73.3054 266.006 73.2309 266.081 73.1377L266.361 73.4453C266.193 73.716 266.006 73.9075 265.801 74.0195C265.605 74.122 265.386 74.1738 265.144 74.1738C264.808 74.1738 264.527 74.0749 264.303 73.8789C264.079 73.683 263.939 73.422 263.883 73.0957C263.5 73.4689 263.164 73.7489 262.875 73.9355C262.586 74.1221 262.236 74.2158 261.825 74.2158C261.312 74.2158 260.868 74.0706 260.495 73.7812C260.131 73.4827 259.949 73.0442 259.949 72.4658C259.949 72.1952 260.01 71.9423 260.131 71.709C260.262 71.4757 260.495 71.2474 260.831 71.0234C261.167 70.7994 261.648 70.5756 262.273 70.3516C262.488 70.277 262.735 70.1972 263.015 70.1133C263.295 70.0293 263.575 69.955 263.855 69.8896V69.5391C263.855 68.858 263.752 68.4056 263.547 68.1816C263.342 67.9576 263.006 67.8457 262.539 67.8457C262.436 67.8457 262.32 67.8501 262.189 67.8594C262.068 67.8687 261.933 67.8924 261.783 67.9297L261.517 68.8398C261.386 69.2875 261.144 69.5117 260.789 69.5117C260.397 69.5117 260.178 69.3201 260.131 68.9375C260.261 68.4057 260.57 67.9857 261.055 67.6777C261.549 67.3604 262.152 67.2012 262.861 67.2012ZM273.418 67.2012C274.155 67.2012 274.701 67.3884 275.056 67.7617C275.41 68.1257 275.588 68.751 275.588 69.6377V72.6191C275.588 72.9178 275.634 73.133 275.728 73.2637C275.821 73.385 275.942 73.4453 276.092 73.4453C276.213 73.4453 276.315 73.4172 276.399 73.3613C276.483 73.3054 276.563 73.2309 276.638 73.1377L276.918 73.4453C276.75 73.716 276.563 73.9075 276.357 74.0195C276.162 74.122 275.943 74.1738 275.7 74.1738C275.364 74.1738 275.083 74.0759 274.859 73.8799C274.635 73.6839 274.495 73.4223 274.439 73.0957C274.057 73.4689 273.721 73.7489 273.432 73.9355C273.142 74.1221 272.792 74.2158 272.382 74.2158C271.869 74.2158 271.425 74.0706 271.052 73.7812C270.688 73.4826 270.506 73.0442 270.506 72.4658C270.506 72.1953 270.566 71.9432 270.688 71.71C270.818 71.4766 271.052 71.2474 271.388 71.0234C271.724 70.7994 272.205 70.5756 272.83 70.3516C273.045 70.2769 273.292 70.1973 273.572 70.1133C273.852 70.0293 274.132 69.9549 274.412 69.8896V69.5391C274.412 68.858 274.309 68.4056 274.104 68.1816C273.898 67.9577 273.562 67.8457 273.096 67.8457C272.993 67.8457 272.877 67.8501 272.746 67.8594C272.625 67.8687 272.489 67.8924 272.34 67.9297L272.074 68.8398C271.944 69.2877 271.7 69.5117 271.346 69.5117C270.954 69.5117 270.734 69.3201 270.688 68.9375C270.818 68.4055 271.127 67.9857 271.612 67.6777C272.107 67.3605 272.709 67.2012 273.418 67.2012ZM258.709 63.7988L258.653 65.7871V73.3613L259.787 73.5293V74.0332L257.617 74.1729L257.52 73.207C257.277 73.5244 256.996 73.7719 256.679 73.9492C256.371 74.1264 255.997 74.2148 255.559 74.2148C254.99 74.2148 254.491 74.0704 254.062 73.7812C253.632 73.4919 253.295 73.0905 253.053 72.5771C252.819 72.0546 252.703 71.4526 252.703 70.7715C252.703 70.053 252.834 69.4274 253.095 68.8955C253.356 68.3635 253.711 67.9481 254.159 67.6494C254.607 67.3507 255.116 67.2012 255.686 67.2012C256.012 67.2012 256.325 67.2669 256.623 67.3975C256.931 67.5281 257.23 67.766 257.52 68.1113V64.9473L256.329 64.8076V64.3174L258.513 63.6875L258.709 63.7988ZM268.376 67.3828H270.266V68.125H268.361V72.4648C268.361 72.8193 268.431 73.081 268.571 73.249C268.711 73.4077 268.899 73.4873 269.132 73.4873C269.29 73.4873 269.44 73.455 269.58 73.3896C269.729 73.3244 269.892 73.2306 270.069 73.1094L270.406 73.4736C270.024 73.9683 269.473 74.2148 268.754 74.2148C268.269 74.2148 267.881 74.0846 267.592 73.8232C267.302 73.5619 267.158 73.1605 267.158 72.6191V72.1016C267.168 71.9243 267.172 71.7002 267.172 71.4297V68.125H266.01V67.5088L267.256 67.3555L267.62 65.4795H268.46L268.376 67.3828ZM26.3848 63.7998L26.3291 65.7871V68.4893C26.6744 68.1066 27.0759 67.7987 27.5332 67.5654C27.9903 67.3229 28.4428 67.2013 28.8906 67.2012C29.4973 67.2012 29.946 67.4067 30.2354 67.8174C30.5339 68.2187 30.6826 68.8766 30.6826 69.791V72.1855C30.6919 72.596 30.7016 72.9785 30.7109 73.333L31.6914 73.5293V74.0332H28.4434V73.5293L29.4648 73.3477C29.4742 72.993 29.4795 72.6099 29.4795 72.1992C29.4888 71.7795 29.4932 71.411 29.4932 71.0938V69.9033C29.4932 69.2595 29.4048 68.8159 29.2275 68.5732C29.0502 68.3306 28.7554 68.209 28.3447 68.209C27.9995 68.209 27.6731 68.28 27.3652 68.4199C27.0573 68.5599 26.7257 68.7926 26.3711 69.1191V72.1855C26.3804 72.596 26.3901 72.9785 26.3994 73.333L27.3652 73.5293V74.0332H24.1172V73.5293L25.167 73.333C25.1763 72.9785 25.1807 72.596 25.1807 72.1855C25.19 71.7657 25.1953 71.4017 25.1953 71.0938V64.9473L24.0469 64.8076V64.3174L26.1895 63.6875L26.3848 63.7998ZM255.896 67.999C255.55 67.999 255.227 68.097 254.929 68.293C254.639 68.4796 254.407 68.7789 254.229 69.1895C254.052 69.5908 253.963 70.1085 253.963 70.7432C253.963 71.6578 254.145 72.3348 254.509 72.7734C254.882 73.2028 255.349 73.417 255.909 73.417C256.217 73.417 256.487 73.3566 256.721 73.2354C256.963 73.1047 257.216 72.8948 257.478 72.6055V68.7275C257.16 68.4475 256.875 68.256 256.623 68.1533C256.371 68.0507 256.129 67.9991 255.896 67.999ZM274.412 70.4072C274.17 70.4725 273.931 70.5479 273.698 70.6318C273.465 70.7065 273.273 70.7712 273.124 70.8271C272.723 70.9858 272.424 71.1494 272.228 71.3174C272.032 71.4854 271.901 71.649 271.836 71.8076C271.78 71.9663 271.752 72.1159 271.752 72.2559C271.752 72.629 271.86 72.8951 272.074 73.0537C272.289 73.2122 272.555 73.292 272.872 73.292C273.012 73.292 273.142 73.2726 273.264 73.2354C273.394 73.198 273.548 73.128 273.726 73.0254C273.903 72.9134 274.132 72.7551 274.412 72.5498V70.4072ZM263.855 70.4072C263.613 70.4726 263.374 70.5478 263.141 70.6318C262.908 70.7064 262.717 70.7712 262.567 70.8271C262.166 70.9858 261.867 71.1494 261.671 71.3174C261.475 71.4853 261.345 71.649 261.279 71.8076C261.223 71.966 261.195 72.1151 261.195 72.2549C261.195 72.6281 261.302 72.895 261.517 73.0537C261.731 73.2124 261.998 73.291 262.315 73.291C262.455 73.291 262.586 73.2726 262.707 73.2354C262.838 73.198 262.992 73.128 263.169 73.0254C263.346 72.9134 263.575 72.7551 263.855 72.5498V70.4072ZM14.7568 67.8457C14.4957 67.8458 14.2295 67.9201 13.959 68.0693C13.6978 68.2187 13.4694 68.4567 13.2734 68.7832C13.0868 69.1098 12.9652 69.5438 12.9092 70.085H15.457C15.793 70.085 16.0126 70.015 16.1152 69.875C16.2271 69.735 16.2832 69.5626 16.2832 69.3574C16.2832 69.0868 16.2132 68.8392 16.0732 68.6152C15.9426 68.382 15.7606 68.1956 15.5273 68.0557C15.3033 67.9157 15.0462 67.8457 14.7568 67.8457ZM126.464 51.8828C127.729 51.8829 128.847 52.1774 129.817 52.7666C130.788 53.3559 131.542 54.1882 132.079 55.2627C132.634 56.3374 132.911 57.6207 132.911 59.1113C132.911 59.2845 132.903 59.4496 132.886 59.6055V60.125H123.553C123.657 61.0616 123.916 61.7895 124.331 62.3086C124.886 62.9846 125.64 63.3232 126.594 63.3232C127.235 63.3232 127.79 63.1755 128.258 62.8809C128.726 62.5862 129.073 62.1268 129.298 61.5029L132.548 62.4395C132.184 63.618 131.472 64.5628 130.415 65.2734C129.375 65.9839 128.049 66.3389 126.438 66.3389C125.172 66.3389 124.046 66.0354 123.058 65.4287C122.07 64.8221 121.298 63.9819 120.743 62.9072C120.206 61.8153 119.938 60.5499 119.938 59.1113C119.938 57.638 120.215 56.3637 120.77 55.2891C121.324 54.1971 122.096 53.3559 123.084 52.7666C124.072 52.1775 125.199 51.8828 126.464 51.8828ZM138.903 52.2207H142.674V55.1064H138.903V60.9824C138.903 61.7104 139.086 62.2571 139.45 62.6211C139.831 62.9848 140.36 63.167 141.036 63.167C141.365 63.167 141.668 63.1408 141.945 63.0889C142.223 63.0195 142.509 62.9502 142.804 62.8809V66.001C142.405 66.1049 141.998 66.1824 141.582 66.2344C141.166 66.3037 140.689 66.3389 140.151 66.3389C138.696 66.3388 137.552 65.9308 136.72 65.1162C135.888 64.2842 135.472 63.0539 135.472 61.4248V55.1064H133.678V52.2207H135.472V49.3604L138.903 48.6846V52.2207ZM165.189 51.8828C166.455 51.8828 167.573 52.1773 168.544 52.7666C169.515 53.3559 170.268 54.1881 170.806 55.2627C171.36 56.3373 171.638 57.6199 171.638 59.1104C171.638 59.2836 171.629 59.4486 171.611 59.6045V60.125H162.278C162.383 61.0617 162.642 61.7896 163.058 62.3086C163.612 62.9845 164.366 63.3222 165.319 63.3223C165.961 63.3223 166.515 63.1754 166.983 62.8809C167.451 62.5862 167.798 62.1268 168.023 61.5029L171.273 62.4385C170.909 63.6171 170.199 64.5618 169.142 65.2725C168.102 65.9831 166.776 66.3388 165.164 66.3389C163.899 66.3389 162.772 66.0353 161.784 65.4287C160.796 64.8221 160.024 63.9817 159.47 62.9072C158.932 61.8152 158.664 60.549 158.664 59.1104C158.664 57.6372 158.942 56.3636 159.496 55.2891C160.051 54.1971 160.822 53.3559 161.81 52.7666C162.797 52.1773 163.924 51.8829 165.189 51.8828ZM119.516 66.001H115.693L114.312 61.6064H107.45L106.1 66.001H102.355L108.258 48.0605H113.613L119.516 66.001ZM147.927 54.3965C148.324 53.6335 148.835 53.0386 149.461 52.6113C150.189 52.126 151.029 51.8829 151.982 51.8828C152.884 51.8828 153.682 52.1079 154.375 52.5586C155.086 52.9919 155.64 53.6161 156.039 54.4307C156.438 55.228 156.637 56.1988 156.637 57.3428V66.001H153.179V58.0449C153.179 57.0223 152.927 56.2505 152.425 55.7305C151.922 55.2106 151.298 54.9512 150.553 54.9512C149.808 54.9512 149.183 55.2106 148.681 55.7305C148.241 56.1854 147.994 56.8332 147.938 57.6729L147.927 58.0449V66.001H144.469V47.4111H147.927V54.3965ZM181.402 55.8086H179.895C179.028 55.8086 178.343 56.034 177.841 56.4844C177.356 56.9177 177.112 57.6807 177.112 58.7725V66.001H173.654V52.2207H177.112V55.1592C177.459 54.1654 177.96 53.3843 178.62 52.8184C179.348 52.1944 180.276 51.8828 181.402 51.8828V55.8086ZM108.432 58.4092H113.306L110.84 50.5684L108.432 58.4092ZM126.464 54.7949C125.58 54.7949 124.86 55.1328 124.306 55.8086C123.949 56.2462 123.711 56.8793 123.591 57.707H129.284C129.168 56.8795 128.941 56.2461 128.596 55.8086C128.093 55.1328 127.382 54.795 126.464 54.7949ZM165.189 54.7949C164.306 54.795 163.587 55.1329 163.032 55.8086C162.675 56.2462 162.437 56.8792 162.317 57.707H168.011C167.895 56.8794 167.668 56.2461 167.322 55.8086C166.82 55.1326 166.108 54.7949 165.189 54.7949ZM129.397 11.2012C129.883 11.2012 130.322 11.3088 130.714 11.5234C131.106 11.7381 131.418 12.046 131.651 12.4473C131.885 12.8392 132.002 13.3195 132.002 13.8887C132.002 14.0473 131.992 14.1969 131.974 14.3369C131.955 14.4676 131.931 14.5795 131.903 14.6729H127.438C127.456 15.5315 127.671 16.1848 128.082 16.6328C128.493 17.0808 129.034 17.3047 129.706 17.3047C130.154 17.3046 130.528 17.2164 130.826 17.0391C131.125 16.8525 131.4 16.6143 131.651 16.3252L131.987 16.5908C131.726 17.0855 131.372 17.4826 130.924 17.7812C130.476 18.0706 129.934 18.2148 129.3 18.2148C128.357 18.2148 127.602 17.9113 127.032 17.3047C126.463 16.6888 126.178 15.8446 126.178 14.7715C126.178 14.0531 126.322 13.4274 126.611 12.8955C126.91 12.3635 127.303 11.9481 127.788 11.6494C128.283 11.3508 128.819 11.2012 129.397 11.2012ZM135.531 11.2012C136.268 11.2012 136.814 11.3876 137.169 11.7607C137.524 12.1247 137.701 12.7502 137.701 13.6367V16.6191C137.701 16.9175 137.748 17.132 137.841 17.2627C137.934 17.384 138.056 17.4453 138.205 17.4453C138.326 17.4453 138.429 17.4171 138.513 17.3613C138.597 17.3053 138.676 17.2301 138.751 17.1367L139.031 17.4453C138.863 17.7159 138.676 17.9076 138.471 18.0195C138.275 18.122 138.056 18.1728 137.813 18.1729C137.478 18.1729 137.198 18.0748 136.974 17.8789C136.75 17.6829 136.609 17.4214 136.553 17.0947C136.17 17.468 135.834 17.7479 135.545 17.9346C135.256 18.1212 134.906 18.2148 134.495 18.2148C133.982 18.2148 133.538 18.0706 133.165 17.7812C132.801 17.4826 132.619 17.0435 132.619 16.4648C132.619 16.1943 132.68 15.9422 132.801 15.709C132.931 15.4757 133.165 15.2474 133.501 15.0234C133.837 14.7994 134.318 14.5746 134.943 14.3506C135.158 14.276 135.406 14.1972 135.686 14.1133C135.965 14.0293 136.245 13.954 136.525 13.8887V13.5391C136.525 12.8577 136.422 12.4047 136.217 12.1807C136.011 11.9569 135.675 11.8447 135.209 11.8447C135.106 11.8447 134.99 11.8501 134.859 11.8594C134.738 11.8687 134.602 11.8914 134.453 11.9287L134.188 12.8389C134.057 13.2869 133.814 13.5107 133.459 13.5107C133.067 13.5107 132.848 13.3198 132.801 12.9375C132.931 12.4055 133.24 11.9848 133.726 11.6768C134.22 11.3596 134.822 11.2012 135.531 11.2012ZM150.785 7.79883L150.729 9.78711V12.4893C151.075 12.1066 151.476 11.7988 151.934 11.5654C152.391 11.3229 152.843 11.2012 153.291 11.2012C153.898 11.2012 154.345 11.4067 154.635 11.8174C154.933 12.2187 155.083 12.8764 155.083 13.791V16.1855C155.092 16.596 155.102 16.9785 155.111 17.333L156.091 17.5293V18.0332H152.843V17.5293L153.865 17.3467C153.875 16.9922 153.879 16.6097 153.879 16.1992C153.888 15.7792 153.894 15.4101 153.894 15.0928V13.9033C153.894 13.2593 153.804 12.8159 153.627 12.5732C153.45 12.3306 153.156 12.209 152.745 12.209C152.4 12.209 152.073 12.2791 151.766 12.4189C151.458 12.5589 151.126 12.7925 150.771 13.1191V16.1855C150.781 16.596 150.789 16.9785 150.799 17.333L151.766 17.5293V18.0332H148.518V17.5986C148.142 18.0085 147.629 18.2148 146.975 18.2148C146.489 18.2148 146.102 18.0845 145.812 17.8232C145.523 17.5619 145.379 17.1605 145.379 16.6191V16.1016C145.388 15.9242 145.393 15.6994 145.393 15.4287V12.125H144.265C144.169 12.5355 143.909 12.7411 143.481 12.7412C143.323 12.7412 143.173 12.7132 143.033 12.6572C142.893 12.5919 142.758 12.5036 142.627 12.3916L142.459 12.2373C142.179 12.4426 141.945 12.6945 141.759 12.9932C141.572 13.2918 141.418 13.6417 141.297 14.043V16.1709C141.306 16.5816 141.316 16.9647 141.325 17.3193L142.473 17.5293V18.0332H139.071V17.5293L140.079 17.3477C140.088 16.993 140.093 16.6099 140.093 16.1992C140.102 15.7792 140.107 15.4101 140.107 15.0928V14.4209C140.107 14.0384 140.102 13.7207 140.093 13.4688C140.093 13.2169 140.084 12.9507 140.065 12.6709L138.959 12.5449V12.0557L140.919 11.2012L141.129 11.3408L141.283 12.9932C141.517 12.4332 141.815 11.9941 142.179 11.6768C142.552 11.3595 142.926 11.2012 143.299 11.2012C143.513 11.2012 143.715 11.2475 143.901 11.3408C144.039 11.4097 144.149 11.497 144.23 11.6016V11.5088L145.477 11.3555L145.841 9.47949H146.681L146.597 11.3828H148.486V12.125H146.582V16.4648C146.582 16.8195 146.653 17.081 146.793 17.249C146.933 17.4076 147.119 17.4873 147.353 17.4873C147.511 17.4873 147.661 17.454 147.801 17.3887C147.95 17.3234 148.113 17.2305 148.29 17.1094L148.627 17.4727C148.615 17.4877 148.601 17.5011 148.589 17.5156L149.567 17.333C149.577 16.9785 149.581 16.596 149.581 16.1855C149.59 15.7655 149.596 15.4008 149.596 15.0928V8.94727L148.447 8.80664V8.31738L150.589 7.6875L150.785 7.79883ZM136.525 14.4072C136.283 14.4725 136.045 14.5469 135.812 14.6309C135.578 14.7055 135.387 14.7712 135.237 14.8271C134.836 14.9858 134.537 15.1494 134.341 15.3174C134.145 15.4851 134.015 15.6482 133.949 15.8066C133.893 15.9652 133.865 16.1149 133.865 16.2549C133.865 16.6282 133.973 16.8941 134.188 17.0527C134.402 17.2114 134.668 17.291 134.985 17.291C135.125 17.291 135.256 17.2726 135.377 17.2354C135.508 17.198 135.662 17.1279 135.839 17.0254C136.016 16.9134 136.245 16.7542 136.525 16.5488V14.4072ZM129.313 11.8447C129.052 11.8448 128.786 11.9201 128.516 12.0693C128.254 12.2187 128.026 12.4566 127.83 12.7832C127.643 13.1099 127.522 13.5437 127.466 14.085H130.014C130.35 14.085 130.569 14.015 130.672 13.875C130.784 13.7351 130.84 13.5625 130.84 13.3574C130.84 13.0868 130.77 12.8392 130.63 12.6152C130.499 12.3819 130.317 12.1947 130.084 12.0547C129.86 11.9147 129.603 11.8447 129.313 11.8447Z" fill="var(--fill-0, #2683EB)"/>
</svg>
